<mxfile host="app.diagrams.net" modified="2021-05-06T19:37:46.192Z" agent="5.0 (Windows NT 10.0; Win64; x64) AppleWebKit/537.36 (KHTML, like Gecko) Chrome/90.0.4430.93 Safari/537.36" etag="KoRuoUm-ylt7YqO-IfXA" version="14.6.10" type="github">
  <diagram id="9fI3-r73ztVFC55Vn3Fi" name="Page-1">
    <mxGraphModel dx="1117" dy="670" grid="1" gridSize="10" guides="1" tooltips="1" connect="1" arrows="1" fold="1" page="1" pageScale="1" pageWidth="827" pageHeight="1169" math="0" shadow="0">
      <root>
        <mxCell id="0" />
        <mxCell id="1" parent="0" />
        <mxCell id="g2Es4-0E_vaOC5Q5clG9-123" value="" style="edgeStyle=none;rounded=0;orthogonalLoop=1;jettySize=auto;html=1;" edge="1" parent="1" source="g2Es4-0E_vaOC5Q5clG9-2" target="g2Es4-0E_vaOC5Q5clG9-122">
          <mxGeometry relative="1" as="geometry" />
        </mxCell>
        <mxCell id="g2Es4-0E_vaOC5Q5clG9-2" value="" style="ellipse;whiteSpace=wrap;html=1;aspect=fixed;fillColor=#000000;" vertex="1" parent="1">
          <mxGeometry x="290" y="130" width="20" height="20" as="geometry" />
        </mxCell>
        <mxCell id="g2Es4-0E_vaOC5Q5clG9-8" value="" style="edgeStyle=none;rounded=0;orthogonalLoop=1;jettySize=auto;html=1;" edge="1" parent="1" source="g2Es4-0E_vaOC5Q5clG9-5" target="g2Es4-0E_vaOC5Q5clG9-7">
          <mxGeometry relative="1" as="geometry" />
        </mxCell>
        <mxCell id="g2Es4-0E_vaOC5Q5clG9-5" value="" style="rounded=1;whiteSpace=wrap;html=1;strokeColor=#000000;fillColor=none;" vertex="1" parent="1">
          <mxGeometry x="240" y="260" width="120" height="30" as="geometry" />
        </mxCell>
        <mxCell id="g2Es4-0E_vaOC5Q5clG9-14" value="" style="edgeStyle=none;rounded=0;orthogonalLoop=1;jettySize=auto;html=1;" edge="1" parent="1" source="g2Es4-0E_vaOC5Q5clG9-7" target="g2Es4-0E_vaOC5Q5clG9-12">
          <mxGeometry relative="1" as="geometry" />
        </mxCell>
        <mxCell id="g2Es4-0E_vaOC5Q5clG9-133" value="" style="edgeStyle=none;rounded=0;orthogonalLoop=1;jettySize=auto;html=1;" edge="1" parent="1" source="g2Es4-0E_vaOC5Q5clG9-7" target="g2Es4-0E_vaOC5Q5clG9-132">
          <mxGeometry relative="1" as="geometry" />
        </mxCell>
        <mxCell id="g2Es4-0E_vaOC5Q5clG9-7" value="" style="rhombus;whiteSpace=wrap;html=1;strokeColor=#000000;fillColor=none;" vertex="1" parent="1">
          <mxGeometry x="285" y="340" width="30" height="30" as="geometry" />
        </mxCell>
        <mxCell id="g2Es4-0E_vaOC5Q5clG9-143" style="edgeStyle=none;rounded=0;orthogonalLoop=1;jettySize=auto;html=1;exitX=0.5;exitY=1;exitDx=0;exitDy=0;entryX=1;entryY=0.5;entryDx=0;entryDy=0;" edge="1" parent="1" source="g2Es4-0E_vaOC5Q5clG9-141" target="g2Es4-0E_vaOC5Q5clG9-137">
          <mxGeometry relative="1" as="geometry">
            <mxPoint x="570" y="430" as="targetPoint" />
            <mxPoint x="580" y="480" as="sourcePoint" />
            <Array as="points">
              <mxPoint x="605" y="425" />
            </Array>
          </mxGeometry>
        </mxCell>
        <mxCell id="g2Es4-0E_vaOC5Q5clG9-12" value="" style="rounded=1;whiteSpace=wrap;html=1;strokeColor=#000000;fillColor=none;" vertex="1" parent="1">
          <mxGeometry x="240" y="410" width="120" height="30" as="geometry" />
        </mxCell>
        <mxCell id="g2Es4-0E_vaOC5Q5clG9-128" value="" style="edgeStyle=none;rounded=0;orthogonalLoop=1;jettySize=auto;html=1;" edge="1" parent="1" source="g2Es4-0E_vaOC5Q5clG9-122" target="g2Es4-0E_vaOC5Q5clG9-5">
          <mxGeometry relative="1" as="geometry" />
        </mxCell>
        <mxCell id="g2Es4-0E_vaOC5Q5clG9-122" value="" style="ellipse;whiteSpace=wrap;html=1;strokeColor=#000000;fillColor=none;" vertex="1" parent="1">
          <mxGeometry x="260" y="170" width="80" height="40" as="geometry" />
        </mxCell>
        <mxCell id="g2Es4-0E_vaOC5Q5clG9-130" value="Flavio" style="text;html=1;strokeColor=none;fillColor=none;align=center;verticalAlign=middle;whiteSpace=wrap;rounded=0;" vertex="1" parent="1">
          <mxGeometry x="280" y="180" width="40" height="20" as="geometry" />
        </mxCell>
        <mxCell id="g2Es4-0E_vaOC5Q5clG9-131" value="Envia livro par editora" style="text;html=1;strokeColor=none;fillColor=none;align=center;verticalAlign=middle;whiteSpace=wrap;rounded=0;" vertex="1" parent="1">
          <mxGeometry x="265" y="265" width="70" height="20" as="geometry" />
        </mxCell>
        <mxCell id="g2Es4-0E_vaOC5Q5clG9-142" value="" style="edgeStyle=none;rounded=0;orthogonalLoop=1;jettySize=auto;html=1;" edge="1" parent="1" source="g2Es4-0E_vaOC5Q5clG9-132" target="g2Es4-0E_vaOC5Q5clG9-141">
          <mxGeometry relative="1" as="geometry" />
        </mxCell>
        <mxCell id="g2Es4-0E_vaOC5Q5clG9-132" value="" style="rounded=1;whiteSpace=wrap;html=1;strokeColor=#000000;fillColor=none;" vertex="1" parent="1">
          <mxGeometry x="400" y="340" width="140" height="30" as="geometry" />
        </mxCell>
        <mxCell id="g2Es4-0E_vaOC5Q5clG9-134" value="Actor" style="shape=umlActor;verticalLabelPosition=bottom;verticalAlign=top;html=1;outlineConnect=0;strokeColor=#d6b656;fillColor=#fff2cc;gradientColor=#ffd966;" vertex="1" parent="1">
          <mxGeometry x="220" y="160" width="20" height="40" as="geometry" />
        </mxCell>
        <mxCell id="g2Es4-0E_vaOC5Q5clG9-135" value="Se sim" style="text;html=1;strokeColor=none;fillColor=none;align=center;verticalAlign=middle;whiteSpace=wrap;rounded=0;" vertex="1" parent="1">
          <mxGeometry x="330" y="340" width="40" height="10" as="geometry" />
        </mxCell>
        <mxCell id="g2Es4-0E_vaOC5Q5clG9-136" value="Se não" style="text;html=1;strokeColor=none;fillColor=none;align=center;verticalAlign=middle;whiteSpace=wrap;rounded=0;rotation=270;" vertex="1" parent="1">
          <mxGeometry x="260" y="380" width="46" height="10" as="geometry" />
        </mxCell>
        <mxCell id="g2Es4-0E_vaOC5Q5clG9-137" value="Sem Alteração" style="text;html=1;strokeColor=none;fillColor=none;align=center;verticalAlign=middle;whiteSpace=wrap;rounded=0;" vertex="1" parent="1">
          <mxGeometry x="240" y="410" width="120" height="30" as="geometry" />
        </mxCell>
        <mxCell id="g2Es4-0E_vaOC5Q5clG9-139" value="Fazer cadastro" style="text;html=1;strokeColor=none;fillColor=none;align=center;verticalAlign=middle;whiteSpace=wrap;rounded=0;" vertex="1" parent="1">
          <mxGeometry x="425" y="347.5" width="90" height="15" as="geometry" />
        </mxCell>
        <mxCell id="g2Es4-0E_vaOC5Q5clG9-146" value="" style="edgeStyle=none;rounded=0;orthogonalLoop=1;jettySize=auto;html=1;" edge="1" parent="1" source="g2Es4-0E_vaOC5Q5clG9-141" target="g2Es4-0E_vaOC5Q5clG9-145">
          <mxGeometry relative="1" as="geometry" />
        </mxCell>
        <mxCell id="g2Es4-0E_vaOC5Q5clG9-141" value="" style="rhombus;whiteSpace=wrap;html=1;strokeColor=#000000;fillColor=none;" vertex="1" parent="1">
          <mxGeometry x="590" y="340" width="30" height="30" as="geometry" />
        </mxCell>
        <mxCell id="g2Es4-0E_vaOC5Q5clG9-144" value="Se não" style="text;html=1;strokeColor=none;fillColor=none;align=center;verticalAlign=middle;whiteSpace=wrap;rounded=0;rotation=90;" vertex="1" parent="1">
          <mxGeometry x="590" y="390" width="60" height="20" as="geometry" />
        </mxCell>
        <mxCell id="g2Es4-0E_vaOC5Q5clG9-163" style="edgeStyle=none;rounded=0;orthogonalLoop=1;jettySize=auto;html=1;entryX=0.5;entryY=1;entryDx=0;entryDy=0;" edge="1" parent="1" source="g2Es4-0E_vaOC5Q5clG9-145" target="g2Es4-0E_vaOC5Q5clG9-154">
          <mxGeometry relative="1" as="geometry" />
        </mxCell>
        <mxCell id="g2Es4-0E_vaOC5Q5clG9-145" value="" style="rounded=1;whiteSpace=wrap;html=1;strokeColor=#000000;fillColor=none;" vertex="1" parent="1">
          <mxGeometry x="535" y="260" width="140" height="30" as="geometry" />
        </mxCell>
        <mxCell id="g2Es4-0E_vaOC5Q5clG9-151" value="Se sim" style="text;html=1;strokeColor=none;fillColor=none;align=center;verticalAlign=middle;whiteSpace=wrap;rounded=0;rotation=270;" vertex="1" parent="1">
          <mxGeometry x="570" y="310" width="40" height="20" as="geometry" />
        </mxCell>
        <mxCell id="g2Es4-0E_vaOC5Q5clG9-152" value="Envia Livro" style="text;html=1;strokeColor=none;fillColor=none;align=center;verticalAlign=middle;whiteSpace=wrap;rounded=0;" vertex="1" parent="1">
          <mxGeometry x="570" y="265" width="70" height="20" as="geometry" />
        </mxCell>
        <mxCell id="g2Es4-0E_vaOC5Q5clG9-168" value="" style="edgeStyle=none;rounded=0;orthogonalLoop=1;jettySize=auto;html=1;entryX=0;entryY=0.25;entryDx=0;entryDy=0;" edge="1" parent="1" source="g2Es4-0E_vaOC5Q5clG9-154" target="g2Es4-0E_vaOC5Q5clG9-165">
          <mxGeometry relative="1" as="geometry" />
        </mxCell>
        <mxCell id="g2Es4-0E_vaOC5Q5clG9-154" value="" style="ellipse;whiteSpace=wrap;html=1;strokeColor=#000000;fillColor=none;" vertex="1" parent="1">
          <mxGeometry x="565" y="160" width="80" height="40" as="geometry" />
        </mxCell>
        <mxCell id="g2Es4-0E_vaOC5Q5clG9-155" value="Editora" style="text;html=1;strokeColor=none;fillColor=none;align=center;verticalAlign=middle;whiteSpace=wrap;rounded=0;" vertex="1" parent="1">
          <mxGeometry x="585" y="170" width="40" height="20" as="geometry" />
        </mxCell>
        <mxCell id="g2Es4-0E_vaOC5Q5clG9-164" value="Actor" style="shape=umlActor;verticalLabelPosition=bottom;verticalAlign=top;html=1;outlineConnect=0;strokeColor=#6c8ebf;fillColor=#dae8fc;gradientColor=#7ea6e0;" vertex="1" parent="1">
          <mxGeometry x="530" y="152.5" width="20" height="45" as="geometry" />
        </mxCell>
        <mxCell id="g2Es4-0E_vaOC5Q5clG9-170" style="edgeStyle=none;rounded=0;orthogonalLoop=1;jettySize=auto;html=1;exitX=0.5;exitY=1;exitDx=0;exitDy=0;entryX=0.5;entryY=0;entryDx=0;entryDy=0;" edge="1" parent="1" source="g2Es4-0E_vaOC5Q5clG9-165" target="g2Es4-0E_vaOC5Q5clG9-169">
          <mxGeometry relative="1" as="geometry" />
        </mxCell>
        <mxCell id="g2Es4-0E_vaOC5Q5clG9-165" value="" style="rounded=1;whiteSpace=wrap;html=1;strokeColor=#000000;fillColor=none;" vertex="1" parent="1">
          <mxGeometry x="710" y="170" width="140" height="30" as="geometry" />
        </mxCell>
        <mxCell id="g2Es4-0E_vaOC5Q5clG9-166" value="&lt;br&gt;Analise do livro" style="text;html=1;strokeColor=none;fillColor=none;align=center;verticalAlign=middle;whiteSpace=wrap;rounded=0;" vertex="1" parent="1">
          <mxGeometry x="720" y="170" width="100" height="20" as="geometry" />
        </mxCell>
        <mxCell id="g2Es4-0E_vaOC5Q5clG9-173" style="edgeStyle=none;rounded=0;orthogonalLoop=1;jettySize=auto;html=1;entryX=0;entryY=0.5;entryDx=0;entryDy=0;" edge="1" parent="1" source="g2Es4-0E_vaOC5Q5clG9-169" target="g2Es4-0E_vaOC5Q5clG9-172">
          <mxGeometry relative="1" as="geometry" />
        </mxCell>
        <mxCell id="g2Es4-0E_vaOC5Q5clG9-179" style="edgeStyle=none;rounded=0;orthogonalLoop=1;jettySize=auto;html=1;entryX=0.5;entryY=1;entryDx=0;entryDy=0;" edge="1" parent="1" source="g2Es4-0E_vaOC5Q5clG9-169" target="g2Es4-0E_vaOC5Q5clG9-137">
          <mxGeometry relative="1" as="geometry">
            <mxPoint x="300" y="470" as="targetPoint" />
            <Array as="points">
              <mxPoint x="780" y="480" />
              <mxPoint x="300" y="480" />
            </Array>
          </mxGeometry>
        </mxCell>
        <mxCell id="g2Es4-0E_vaOC5Q5clG9-169" value="" style="rhombus;whiteSpace=wrap;html=1;strokeColor=#000000;fillColor=none;" vertex="1" parent="1">
          <mxGeometry x="765" y="250" width="30" height="30" as="geometry" />
        </mxCell>
        <mxCell id="g2Es4-0E_vaOC5Q5clG9-172" value="" style="rounded=1;whiteSpace=wrap;html=1;strokeColor=#000000;fillColor=none;" vertex="1" parent="1">
          <mxGeometry x="880" y="250" width="140" height="30" as="geometry" />
        </mxCell>
        <mxCell id="g2Es4-0E_vaOC5Q5clG9-175" value="Terá alteração" style="text;html=1;strokeColor=none;fillColor=none;align=center;verticalAlign=middle;whiteSpace=wrap;rounded=0;" vertex="1" parent="1">
          <mxGeometry x="900" y="255" width="100" height="20" as="geometry" />
        </mxCell>
        <mxCell id="g2Es4-0E_vaOC5Q5clG9-177" value="Se sim" style="text;html=1;strokeColor=none;fillColor=none;align=center;verticalAlign=middle;whiteSpace=wrap;rounded=0;" vertex="1" parent="1">
          <mxGeometry x="810" y="245" width="40" height="20" as="geometry" />
        </mxCell>
        <mxCell id="g2Es4-0E_vaOC5Q5clG9-180" value="" style="ellipse;whiteSpace=wrap;html=1;aspect=fixed;strokeColor=#000000;fillColor=none;" vertex="1" parent="1">
          <mxGeometry x="1040" y="247.5" width="37.5" height="37.5" as="geometry" />
        </mxCell>
        <mxCell id="g2Es4-0E_vaOC5Q5clG9-190" value="" style="ellipse;whiteSpace=wrap;html=1;aspect=fixed;fillColor=#000000;" vertex="1" parent="1">
          <mxGeometry x="1048.75" y="256.25" width="20" height="20" as="geometry" />
        </mxCell>
      </root>
    </mxGraphModel>
  </diagram>
</mxfile>
